***************************************************************

[IMG]http://www.hotimg.org/images/67363952943939111394.png[/IMG]

***************************************************************

[IMG]http://www.hotimg.org/images/04207971466683843386.jpg[/IMG]

***************************************************************

FILM TITLE: In Time (2011)

***************************************************************

Genre:  Action | Sci-Fi | Thriller   

Rated PG-13 for violence, some sexualty and partial nudity, and strong language

Release: 28 October 2011 (Sweden) 

Director: Andrew Niccol

Writer: Andrew Niccol

Stars:  Justin Timberlake, Amanda Seyfried and Cillian Murphy

Country: USA 

Language: English 

Plot:
In a future where people stop aging at 25, but are engineered to live 
only one more year, having the means to buy your way out of the situation 
is a shot at immortal youth. Here, Will Salas finds himself accused of 
murder and on the run with a hostage - a connection that becomes an 
important part of the way against the system.

IMDB Rating: 6.5/10 from 61,131 users   Metascore: 53/100 
 
http://www.imdb.com/title/tt1637688/

****************************************************************

[URL=http://www.hotimg.org/viewer.php?file=93664511957077261205.png][IMG]http://www.hotimg.org/images/93664511957077261205_thumb.png[/IMG][/URL]
[URL=http://www.hotimg.org/viewer.php?file=62542368030921573755.png][IMG]http://www.hotimg.org/images/62542368030921573755_thumb.png[/IMG][/URL]
[URL=http://www.hotimg.org/viewer.php?file=53600769313705865587.png][IMG]http://www.hotimg.org/images/53600769313705865587_thumb.png[/IMG][/URL]
[URL=http://www.hotimg.org/viewer.php?file=44431557295325276969.png][IMG]http://www.hotimg.org/images/44431557295325276969_thumb.png[/IMG][/URL]
[URL=http://www.hotimg.org/viewer.php?file=40103072981027626414.png][IMG]http://www.hotimg.org/images/40103072981027626414_thumb.png[/IMG][/URL]

****************************************************************

General
Unique ID                        : 216121256210217265546840863317055420107 (0xA297709CFBE15AAB8E2AF49795A6B6CB)
Complete name                    : In Time 2011 720p BDRip x264 ac3 subs (mkv) [GREYSHADOW].mkv
Format                           : Matroska
Format version                   : Version 2
File size                        : 3.54 GiB
Duration                         : 1h 49mn
Overall bit rate                 : 4642 Kbps
Encoded date                     : UTC 2012-01-28 12:44:48
Writing application              : mkvmerge v5.2.1 ('A Far Off Place') built on Jan  2 2012 23:21:10
Writing library                  : libebml v1.2.3 + libmatroska v1.3.0

Video
ID                               : 1
Format                           : AVC
Format/Info                      : Advanced Video Codec
Format profile                   : High@L4.1
Format settings, CABAC           : Yes
Format settings, ReFrames        : 12 frames
Muxing mode                      : Header stripping
Codec ID                         : V_MPEG4/ISO/AVC
Duration                         : 1h 49mn
Bit rate                         : 4000 Kbps
Width                            : 1280 pixels
Height                           : 544 pixels
Display aspect ratio             : 2.35:1
Frame rate                       : 23.976 fps
Color space                      : YUV
Chroma subsampling               : 4:2:0
Bit depth                        : 8 bits
Scan type                        : Progressive
Bits/(Pixel*Frame)               : 0.240
Stream size                      : 2.98 GiB (84%)
Title                            : AVC MPEG4 Video
Writing library                  : x264 core 120 r2146 bcd41db
Language                         : English
Color primaries                  : BT.709-5, BT.1361, IEC 61966-2-4, SMPTE RP177
Transfer characteristics         : BT.709-5, BT.1361
Matrix coefficients              : BT.709-5, BT.1361, IEC 61966-2-4 709, SMPTE RP177

Audio
ID                               : 2
Format                           : AC-3
Format/Info                      : Audio Coding 3
Mode extension                   : CM (complete main)
Muxing mode                      : Header stripping
Codec ID                         : A_AC3
Duration                         : 1h 49mn
Bit rate mode                    : Constant
Bit rate                         : 640 Kbps
Channel(s)                       : 6 channels
Channel positions                : Front: L C R, Side: L R, LFE
Sampling rate                    : 48.0 KHz
Bit depth                        : 16 bits
Compression mode                 : Lossy
Stream size                      : 500 MiB (14%)
Title                            : English AC3 5.1 640kbps Audio
Language                         : English

Text #1
ID                               : 3
Format                           : UTF-8
Codec ID                         : S_TEXT/UTF8
Codec ID/Info                    : UTF-8 Plain Text
Title                            : English (Hard Of Hearing) Sub sup to srt
Language                         : English

Text #2
ID                               : 4
Format                           : UTF-8
Codec ID                         : S_TEXT/UTF8
Codec ID/Info                    : UTF-8 Plain Text
Title                            : Spanish Sub sup to srt
Language                         : Spanish

****************************************************************

Video Source: In Time 2011 1080p Blu-Ray AVC DTS-HD MA5.1 Remux-fs (36.68GB)

Thanks: karantina7 (chdbits.org)

****************************************************************

I provide a small sample, so please download this to check your 
compatibility first if you are unsure.

****************************************************************

Hash: 93E8BE57BE86601C7C6FE2B5934F3FBBE59A6BED

Trackers:
.udp://tracker.1337x.org:80/announce

****************************************************************